<mxfile host="app.diagrams.net" modified="2023-03-17T18:09:54.347Z" agent="5.0 (Windows NT 10.0; Win64; x64) AppleWebKit/537.36 (KHTML, like Gecko) Chrome/109.0.0.0 Safari/537.36 OPR/95.0.0.0" etag="te_NIxwu5Lzh0Yw30U08" version="21.0.7" type="github">
  <diagram id="C5RBs43oDa-KdzZeNtuy" name="Page-1">
    <mxGraphModel dx="1741" dy="958" grid="1" gridSize="10" guides="1" tooltips="1" connect="1" arrows="1" fold="1" page="1" pageScale="1" pageWidth="827" pageHeight="1169" math="0" shadow="0">
      <root>
        <mxCell id="WIyWlLk6GJQsqaUBKTNV-0" />
        <mxCell id="WIyWlLk6GJQsqaUBKTNV-1" parent="WIyWlLk6GJQsqaUBKTNV-0" />
        <mxCell id="WIyWlLk6GJQsqaUBKTNV-2" value="" style="rounded=0;html=1;jettySize=auto;orthogonalLoop=1;fontSize=11;endArrow=block;endFill=0;endSize=8;strokeWidth=1;shadow=0;labelBackgroundColor=none;edgeStyle=orthogonalEdgeStyle;" parent="WIyWlLk6GJQsqaUBKTNV-1" source="WIyWlLk6GJQsqaUBKTNV-3" edge="1">
          <mxGeometry relative="1" as="geometry">
            <mxPoint x="414" y="80" as="targetPoint" />
          </mxGeometry>
        </mxCell>
        <mxCell id="WIyWlLk6GJQsqaUBKTNV-3" value="K Means Algorithm" style="rounded=1;whiteSpace=wrap;html=1;fontSize=12;glass=0;strokeWidth=1;shadow=0;" parent="WIyWlLk6GJQsqaUBKTNV-1" vertex="1">
          <mxGeometry x="354" y="10" width="120" height="40" as="geometry" />
        </mxCell>
        <mxCell id="N45urT5iT_6IWGHpwI25-0" value="" style="rounded=0;whiteSpace=wrap;html=1;" vertex="1" parent="WIyWlLk6GJQsqaUBKTNV-1">
          <mxGeometry x="580" width="240" height="80" as="geometry" />
        </mxCell>
        <mxCell id="N45urT5iT_6IWGHpwI25-1" value="&lt;b&gt;In&lt;/b&gt;: list with all elements , number of clusters (k)" style="text;html=1;strokeColor=none;fillColor=none;align=center;verticalAlign=middle;whiteSpace=wrap;rounded=0;" vertex="1" parent="WIyWlLk6GJQsqaUBKTNV-1">
          <mxGeometry x="580" width="230" height="30" as="geometry" />
        </mxCell>
        <mxCell id="N45urT5iT_6IWGHpwI25-3" value="&lt;b&gt;Out&lt;/b&gt;: list of all clusters with all centroids" style="text;html=1;strokeColor=none;fillColor=none;align=center;verticalAlign=middle;whiteSpace=wrap;rounded=0;" vertex="1" parent="WIyWlLk6GJQsqaUBKTNV-1">
          <mxGeometry x="580" y="50" width="240" height="30" as="geometry" />
        </mxCell>
        <mxCell id="N45urT5iT_6IWGHpwI25-5" value="" style="rounded=1;whiteSpace=wrap;html=1;" vertex="1" parent="WIyWlLk6GJQsqaUBKTNV-1">
          <mxGeometry x="344" y="80" width="146" height="40" as="geometry" />
        </mxCell>
        <mxCell id="N45urT5iT_6IWGHpwI25-6" value="Generate_k_centroids()" style="text;html=1;strokeColor=none;fillColor=none;align=center;verticalAlign=middle;whiteSpace=wrap;rounded=0;" vertex="1" parent="WIyWlLk6GJQsqaUBKTNV-1">
          <mxGeometry x="389" y="85" width="56" height="30" as="geometry" />
        </mxCell>
        <mxCell id="N45urT5iT_6IWGHpwI25-7" value="" style="rhombus;whiteSpace=wrap;html=1;" vertex="1" parent="WIyWlLk6GJQsqaUBKTNV-1">
          <mxGeometry x="354" y="150" width="126" height="80" as="geometry" />
        </mxCell>
        <mxCell id="N45urT5iT_6IWGHpwI25-10" value="" style="rounded=0;html=1;jettySize=auto;orthogonalLoop=1;fontSize=11;endArrow=block;endFill=0;endSize=8;strokeWidth=1;shadow=0;labelBackgroundColor=none;edgeStyle=orthogonalEdgeStyle;exitX=0.5;exitY=1;exitDx=0;exitDy=0;" edge="1" parent="WIyWlLk6GJQsqaUBKTNV-1" source="N45urT5iT_6IWGHpwI25-5" target="N45urT5iT_6IWGHpwI25-7">
          <mxGeometry relative="1" as="geometry">
            <mxPoint x="540" y="250" as="sourcePoint" />
            <mxPoint x="420" y="150" as="targetPoint" />
            <Array as="points" />
          </mxGeometry>
        </mxCell>
        <mxCell id="N45urT5iT_6IWGHpwI25-11" value="While NOT stop_condition()" style="text;html=1;strokeColor=none;fillColor=none;align=center;verticalAlign=middle;whiteSpace=wrap;rounded=0;" vertex="1" parent="WIyWlLk6GJQsqaUBKTNV-1">
          <mxGeometry x="387" y="170" width="60" height="30" as="geometry" />
        </mxCell>
        <mxCell id="N45urT5iT_6IWGHpwI25-12" value="" style="endArrow=classic;html=1;rounded=0;" edge="1" parent="WIyWlLk6GJQsqaUBKTNV-1">
          <mxGeometry width="50" height="50" relative="1" as="geometry">
            <mxPoint x="350" y="190" as="sourcePoint" />
            <mxPoint x="280" y="270" as="targetPoint" />
            <Array as="points">
              <mxPoint x="280" y="190" />
            </Array>
          </mxGeometry>
        </mxCell>
        <mxCell id="N45urT5iT_6IWGHpwI25-13" value="" style="endArrow=classic;html=1;rounded=0;entryX=1;entryY=0.5;entryDx=0;entryDy=0;" edge="1" parent="WIyWlLk6GJQsqaUBKTNV-1" target="N45urT5iT_6IWGHpwI25-19">
          <mxGeometry width="50" height="50" relative="1" as="geometry">
            <mxPoint x="480" y="190" as="sourcePoint" />
            <mxPoint x="550" y="270" as="targetPoint" />
            <Array as="points">
              <mxPoint x="550" y="190" />
              <mxPoint x="550" y="510" />
              <mxPoint x="550" y="580" />
              <mxPoint x="500" y="580" />
            </Array>
          </mxGeometry>
        </mxCell>
        <mxCell id="N45urT5iT_6IWGHpwI25-16" value="Yes" style="text;html=1;strokeColor=none;fillColor=none;align=center;verticalAlign=middle;whiteSpace=wrap;rounded=0;" vertex="1" parent="WIyWlLk6GJQsqaUBKTNV-1">
          <mxGeometry x="270" y="160" width="60" height="30" as="geometry" />
        </mxCell>
        <mxCell id="N45urT5iT_6IWGHpwI25-17" value="No" style="text;html=1;strokeColor=none;fillColor=none;align=center;verticalAlign=middle;whiteSpace=wrap;rounded=0;" vertex="1" parent="WIyWlLk6GJQsqaUBKTNV-1">
          <mxGeometry x="500" y="160" width="60" height="30" as="geometry" />
        </mxCell>
        <mxCell id="N45urT5iT_6IWGHpwI25-18" value="" style="rounded=0;whiteSpace=wrap;html=1;" vertex="1" parent="WIyWlLk6GJQsqaUBKTNV-1">
          <mxGeometry x="90" y="260" width="390" height="210" as="geometry" />
        </mxCell>
        <mxCell id="N45urT5iT_6IWGHpwI25-19" value="" style="rounded=1;whiteSpace=wrap;html=1;" vertex="1" parent="WIyWlLk6GJQsqaUBKTNV-1">
          <mxGeometry x="354" y="530" width="123" height="100" as="geometry" />
        </mxCell>
        <mxCell id="N45urT5iT_6IWGHpwI25-20" value="Return list with all clusters and centroids" style="text;html=1;strokeColor=none;fillColor=none;align=center;verticalAlign=middle;whiteSpace=wrap;rounded=0;" vertex="1" parent="WIyWlLk6GJQsqaUBKTNV-1">
          <mxGeometry x="385.5" y="565" width="60" height="30" as="geometry" />
        </mxCell>
        <mxCell id="N45urT5iT_6IWGHpwI25-22" value="" style="rounded=1;whiteSpace=wrap;html=1;" vertex="1" parent="WIyWlLk6GJQsqaUBKTNV-1">
          <mxGeometry x="130" y="285" width="300" height="40" as="geometry" />
        </mxCell>
        <mxCell id="N45urT5iT_6IWGHpwI25-23" value="Calculate_distance_from_centroid_to_each_element()" style="text;html=1;strokeColor=none;fillColor=none;align=center;verticalAlign=middle;whiteSpace=wrap;rounded=0;" vertex="1" parent="WIyWlLk6GJQsqaUBKTNV-1">
          <mxGeometry x="253" y="285" width="56" height="30" as="geometry" />
        </mxCell>
        <mxCell id="N45urT5iT_6IWGHpwI25-24" value="" style="rounded=1;whiteSpace=wrap;html=1;" vertex="1" parent="WIyWlLk6GJQsqaUBKTNV-1">
          <mxGeometry x="131" y="405" width="300" height="40" as="geometry" />
        </mxCell>
        <mxCell id="N45urT5iT_6IWGHpwI25-25" value="Recalculate_centroids()" style="text;html=1;strokeColor=none;fillColor=none;align=center;verticalAlign=middle;whiteSpace=wrap;rounded=0;" vertex="1" parent="WIyWlLk6GJQsqaUBKTNV-1">
          <mxGeometry x="253" y="410" width="56" height="30" as="geometry" />
        </mxCell>
        <mxCell id="N45urT5iT_6IWGHpwI25-27" value="" style="rounded=1;whiteSpace=wrap;html=1;" vertex="1" parent="WIyWlLk6GJQsqaUBKTNV-1">
          <mxGeometry x="130" y="345" width="300" height="40" as="geometry" />
        </mxCell>
        <mxCell id="N45urT5iT_6IWGHpwI25-28" value="Assign_cluster_to_each_element()" style="text;html=1;strokeColor=none;fillColor=none;align=center;verticalAlign=middle;whiteSpace=wrap;rounded=0;" vertex="1" parent="WIyWlLk6GJQsqaUBKTNV-1">
          <mxGeometry x="253" y="350" width="56" height="30" as="geometry" />
        </mxCell>
        <mxCell id="N45urT5iT_6IWGHpwI25-31" style="edgeStyle=orthogonalEdgeStyle;rounded=0;orthogonalLoop=1;jettySize=auto;html=1;exitX=0.5;exitY=1;exitDx=0;exitDy=0;" edge="1" parent="WIyWlLk6GJQsqaUBKTNV-1" source="N45urT5iT_6IWGHpwI25-18" target="N45urT5iT_6IWGHpwI25-18">
          <mxGeometry relative="1" as="geometry" />
        </mxCell>
        <mxCell id="N45urT5iT_6IWGHpwI25-32" value="" style="endArrow=classic;html=1;rounded=0;exitX=0.515;exitY=1.016;exitDx=0;exitDy=0;exitPerimeter=0;" edge="1" parent="WIyWlLk6GJQsqaUBKTNV-1" source="N45urT5iT_6IWGHpwI25-18">
          <mxGeometry width="50" height="50" relative="1" as="geometry">
            <mxPoint x="330" y="510" as="sourcePoint" />
            <mxPoint x="350" y="580" as="targetPoint" />
            <Array as="points">
              <mxPoint x="290" y="580" />
            </Array>
          </mxGeometry>
        </mxCell>
        <mxCell id="N45urT5iT_6IWGHpwI25-35" value="" style="rounded=0;html=1;jettySize=auto;orthogonalLoop=1;fontSize=11;endArrow=block;endFill=0;endSize=8;strokeWidth=1;shadow=0;labelBackgroundColor=none;edgeStyle=orthogonalEdgeStyle;" edge="1" parent="WIyWlLk6GJQsqaUBKTNV-1" source="N45urT5iT_6IWGHpwI25-36">
          <mxGeometry relative="1" as="geometry">
            <mxPoint x="396.25" y="830" as="targetPoint" />
          </mxGeometry>
        </mxCell>
        <mxCell id="N45urT5iT_6IWGHpwI25-36" value="" style="rounded=1;whiteSpace=wrap;html=1;fontSize=12;glass=0;strokeWidth=1;shadow=0;" vertex="1" parent="WIyWlLk6GJQsqaUBKTNV-1">
          <mxGeometry x="232.5" y="760" width="327.5" height="40" as="geometry" />
        </mxCell>
        <mxCell id="N45urT5iT_6IWGHpwI25-37" value="" style="rounded=0;whiteSpace=wrap;html=1;" vertex="1" parent="WIyWlLk6GJQsqaUBKTNV-1">
          <mxGeometry x="587" y="750" width="240" height="80" as="geometry" />
        </mxCell>
        <mxCell id="N45urT5iT_6IWGHpwI25-38" value="&lt;b&gt;In&lt;/b&gt;: list with all elements , list with all clusters" style="text;html=1;strokeColor=none;fillColor=none;align=center;verticalAlign=middle;whiteSpace=wrap;rounded=0;" vertex="1" parent="WIyWlLk6GJQsqaUBKTNV-1">
          <mxGeometry x="587" y="750" width="230" height="30" as="geometry" />
        </mxCell>
        <mxCell id="N45urT5iT_6IWGHpwI25-39" value="&lt;b&gt;Out&lt;/b&gt;: distance matrix" style="text;html=1;strokeColor=none;fillColor=none;align=center;verticalAlign=middle;whiteSpace=wrap;rounded=0;" vertex="1" parent="WIyWlLk6GJQsqaUBKTNV-1">
          <mxGeometry x="540" y="800" width="240" height="30" as="geometry" />
        </mxCell>
        <mxCell id="N45urT5iT_6IWGHpwI25-40" value="Calculate_distance_from_centroid_to_each_element()" style="text;html=1;strokeColor=none;fillColor=none;align=center;verticalAlign=middle;whiteSpace=wrap;rounded=0;" vertex="1" parent="WIyWlLk6GJQsqaUBKTNV-1">
          <mxGeometry x="368.25" y="765" width="56" height="30" as="geometry" />
        </mxCell>
        <mxCell id="N45urT5iT_6IWGHpwI25-42" value="" style="shape=parallelogram;perimeter=parallelogramPerimeter;whiteSpace=wrap;html=1;fixedSize=1;" vertex="1" parent="WIyWlLk6GJQsqaUBKTNV-1">
          <mxGeometry x="240" y="830" width="340" height="260" as="geometry" />
        </mxCell>
        <mxCell id="N45urT5iT_6IWGHpwI25-43" value="for centroid in list_of_centroids" style="text;html=1;strokeColor=none;fillColor=none;align=center;verticalAlign=middle;whiteSpace=wrap;rounded=0;" vertex="1" parent="WIyWlLk6GJQsqaUBKTNV-1">
          <mxGeometry x="253" y="840" width="240" height="30" as="geometry" />
        </mxCell>
        <mxCell id="N45urT5iT_6IWGHpwI25-44" value="&lt;span style=&quot;white-space: pre;&quot;&gt;	&lt;/span&gt;for elment in list_of_elements" style="text;html=1;strokeColor=none;fillColor=none;align=center;verticalAlign=middle;whiteSpace=wrap;rounded=0;" vertex="1" parent="WIyWlLk6GJQsqaUBKTNV-1">
          <mxGeometry x="253" y="870" width="240" height="30" as="geometry" />
        </mxCell>
        <mxCell id="N45urT5iT_6IWGHpwI25-45" value="" style="rounded=1;whiteSpace=wrap;html=1;" vertex="1" parent="WIyWlLk6GJQsqaUBKTNV-1">
          <mxGeometry x="330" y="900" width="220" height="30" as="geometry" />
        </mxCell>
        <mxCell id="N45urT5iT_6IWGHpwI25-46" value="Calculate_distance(element, centroid)" style="text;html=1;strokeColor=none;fillColor=none;align=center;verticalAlign=middle;whiteSpace=wrap;rounded=0;" vertex="1" parent="WIyWlLk6GJQsqaUBKTNV-1">
          <mxGeometry x="336.13" y="900" width="207.75" height="30" as="geometry" />
        </mxCell>
      </root>
    </mxGraphModel>
  </diagram>
</mxfile>
